<svg width="14" height="14" viewBox="0 0 14 14" fill="none" xmlns="http://www.w3.org/2000/svg">
<path d="M13.9774 10.5817L13.3417 13.3378C13.2524 13.7274 12.91 14 12.5089 14C5.61065 13.9995 0 8.3888 0 1.49032C0 1.08948 0.272576 0.746608 0.662232 0.657745L3.41834 0.0220348C3.81973 -0.0709839 4.22986 0.137365 4.39665 0.517479L5.66862 3.48413C5.81731 3.83356 5.71702 4.24069 5.42309 4.48075L3.95097 5.66277C4.88007 7.5554 6.41889 9.09423 8.31208 10.0239L9.51733 8.55285C9.75488 8.2581 10.1651 8.15612 10.5145 8.30746L13.4812 9.57915C13.838 9.76685 14.0704 10.1825 13.9774 10.5817Z" fill="#27ACA1"/>
</svg>