<svg width="48" height="48" viewBox="0 0 48 48" fill="none" xmlns="http://www.w3.org/2000/svg">
<path d="M14.6283 18.083L6.03835 23.1881L6 13.093L14.6283 18.083Z" fill="#0C0C3D"/>
<path d="M33.5722 7.02837L24.9056 12.0183V2L33.5722 7.02837Z" fill="#0C0C3D"/>
<path d="M23.9086 12.5174L15.2419 17.5458V7.52747L23.9086 12.5174Z" fill="#0C0C3D"/>
<path d="M23.9086 35.241L15.2419 40.231V30.1357L23.9086 35.241Z" fill="#0C0C3D"/>
<path d="M14.6283 29.2912L6.03835 34.358L6 24.2629L14.6283 29.2912Z" fill="#0C0C3D"/>
<path d="M42.6608 24.0325L34.0709 29.1376V19.0042L42.6608 24.0325Z" fill="#0C0C3D"/>
<path d="M33.5722 40.7299L24.9056 45.7581V35.6631L33.5722 40.7299Z" fill="#0C0C3D"/>
<path d="M42.7375 35.3179L34.1091 40.3461V30.2511L42.7375 35.3179Z" fill="#0C0C3D"/>
<path d="M6 23.7256L14.6283 28.7541V18.6973L6 23.7256Z" fill="#0C0C3D"/>
<path d="M24.7905 24.0325L33.4188 29.0993V19.0042L24.7905 24.0325Z" fill="#0C0C3D"/>
<path d="M34.2625 29.6752L42.929 34.742V24.6469L34.2625 29.6752Z" fill="#0C0C3D"/>
<path d="M15.6637 7.06668L24.2537 12.095L24.292 2.03833L15.6637 7.06668Z" fill="#0C0C3D"/>
<path d="M15.6637 40.7299L24.2537 45.7581L24.292 35.6631L15.6637 40.7299Z" fill="#0C0C3D"/>
<path d="M6 34.8957L14.6283 39.9239V29.8672L6 34.8957Z" fill="#0C0C3D"/>
<path d="M24.9823 35.241L33.6107 40.231V30.1357L24.9823 35.241Z" fill="#0C0C3D"/>
<path d="M6 12.5174L14.6283 17.5458V7.52747L6 12.5174Z" fill="#0C0C3D"/>
</svg>
