<svg width="48" height="48" viewBox="0 0 48 48" fill="none" xmlns="http://www.w3.org/2000/svg">
<path fill-rule="evenodd" clip-rule="evenodd" d="M43 24C43 34.4934 34.4934 43 24 43C13.5066 43 5 34.4934 5 24C5 13.5066 13.5066 5 24 5C34.4934 5 43 13.5066 43 24ZM24.6808 19.0266C22.8328 19.7952 19.1393 21.3862 13.6004 23.7994C12.701 24.157 12.2298 24.5069 12.1869 24.8491C12.1144 25.4273 12.8386 25.655 13.8246 25.965C13.9587 26.0072 14.0977 26.0509 14.2402 26.0972C15.2103 26.4126 16.5152 26.7815 17.1936 26.7962C17.809 26.8094 18.4958 26.5557 19.2541 26.0351C24.4293 22.5417 27.1007 20.776 27.2684 20.7379C27.3867 20.711 27.5507 20.6773 27.6618 20.776C27.7729 20.8748 27.762 21.0618 27.7502 21.1119C27.6785 21.4177 24.8361 24.0603 23.3652 25.4278C22.9066 25.8541 22.5814 26.1565 22.5149 26.2255C22.3659 26.3802 22.2141 26.5266 22.0682 26.6672C21.167 27.536 20.4911 28.1876 22.1056 29.2515C22.8815 29.7628 23.5024 30.1856 24.1218 30.6074C24.7982 31.0681 25.4729 31.5275 26.3458 32.0997C26.5682 32.2455 26.7806 32.397 26.9875 32.5444C27.7747 33.1057 28.4819 33.6098 29.3557 33.5294C29.8634 33.4827 30.3878 33.0053 30.6542 31.5815C31.2836 28.2166 32.5208 20.9258 32.8068 17.9215C32.8318 17.6582 32.8003 17.3214 32.775 17.1735C32.7497 17.0256 32.6968 16.8149 32.5046 16.659C32.2769 16.4742 31.9255 16.4353 31.7683 16.4381C31.0537 16.4506 29.9573 16.8319 24.6808 19.0266Z" fill="#0C0C3D"/>
</svg>
