<svg width="48" height="48" viewBox="0 0 48 48" fill="none" xmlns="http://www.w3.org/2000/svg">
<path fill-rule="evenodd" clip-rule="evenodd" d="M8.5306 8.5306C6 11.0612 6 15.1341 6 23.28V24.72C6 32.8659 6 36.9388 8.5306 39.4694C11.0612 42 15.1341 42 23.28 42H24.72C32.8659 42 36.9388 42 39.4694 39.4694C42 36.9388 42 32.8659 42 24.72V23.28C42 15.1341 42 11.0612 39.4694 8.5306C36.9388 6 32.8659 6 24.72 6H23.28C15.1341 6 11.0612 6 8.5306 8.5306ZM12.0751 16.9501C12.27 26.3101 16.95 31.935 25.155 31.935H25.6201V26.58C28.6351 26.88 30.915 29.0851 31.8299 31.935H36.0901C34.9201 27.6751 31.8449 25.32 29.9249 24.42C31.8449 23.3101 34.5449 20.6101 35.1899 16.9501H31.3198C30.4798 19.9201 27.9901 22.62 25.6201 22.875V16.9501H21.75V27.33C19.35 26.7301 16.32 23.8201 16.185 16.9501H12.0751Z" fill="#0C0C3D"/>
</svg>
