<svg width="48" height="48" viewBox="0 0 48 48" fill="none" xmlns="http://www.w3.org/2000/svg">
<path d="M43.1761 14.3822C42.7148 12.6689 41.3639 11.318 39.6506 10.8567C36.5205 10 23.9999 10 23.9999 10C23.9999 10 11.4794 10 8.34924 10.8237C6.66885 11.285 5.285 12.6689 4.82372 14.3822C4 17.5123 4 24.0032 4 24.0032C4 24.0032 4 30.5271 4.82372 33.6243C5.285 35.3376 6.6359 36.6885 8.34924 37.1498C11.5123 38.0065 23.9999 38.0065 23.9999 38.0065C23.9999 38.0065 36.5205 38.0065 39.6506 37.1828C41.3639 36.7215 42.7148 35.3706 43.1761 33.6572C43.9998 30.5271 43.9998 24.0362 43.9998 24.0362C43.9998 24.0362 44.0328 17.5123 43.1761 14.3822ZM20.0131 29.9999V18.0066L30.4249 24.0032L20.0131 29.9999Z" fill="#0C0C3D"/>
</svg>
