<svg width="48" height="48" viewBox="0 0 48 48" fill="none" xmlns="http://www.w3.org/2000/svg">
<path fill-rule="evenodd" clip-rule="evenodd" d="M27.4714 27.4714C24.6429 30.39 24.45 34.0286 24.1929 42C31.6243 42 36.7543 41.9743 39.4029 39.4029C41.9743 36.7543 42 31.38 42 24.1929C34.0286 24.45 30.39 24.6429 27.4714 27.4714ZM23.8071 42C16.3757 42 11.2457 41.9743 8.59714 39.4029C6.02571 36.7543 6 31.38 6 24.1929C13.9714 24.45 17.61 24.6429 20.5286 27.4714C23.3571 30.39 23.55 34.0286 23.8071 42ZM20.5286 20.5286C17.61 23.3571 13.9714 23.55 6 23.8071C6 16.62 6.02571 11.2457 8.59714 8.59714C11.2457 6.02571 16.3886 6 23.8071 6C23.55 13.9714 23.3571 17.61 20.5286 20.5286ZM24.1929 6C24.4371 13.9714 24.6429 17.61 27.4714 20.5286C30.39 23.3571 34.0286 23.55 42 23.8071C42 16.62 41.9743 11.2457 39.4029 8.59714C36.7543 6.02571 31.6243 6 24.1929 6Z" fill="#0C0C3D"/>
</svg>
