<svg width="128" height="46" viewBox="0 0 128 46" fill="none" xmlns="http://www.w3.org/2000/svg">
<path d="M55.504 11.691C55.276 11.271 54.946 10.953 54.514 10.737C54.094 10.509 53.596 10.395 53.02 10.395C52.024 10.395 51.226 10.725 50.626 11.385C50.026 12.033 49.726 12.903 49.726 13.995C49.726 15.159 50.038 16.071 50.662 16.731C51.298 17.379 52.168 17.703 53.272 17.703C54.028 17.703 54.664 17.511 55.18 17.127C55.708 16.743 56.092 16.191 56.332 15.471H52.426V13.203H59.122V16.065C58.894 16.833 58.504 17.547 57.952 18.207C57.412 18.867 56.722 19.401 55.882 19.809C55.042 20.217 54.094 20.421 53.038 20.421C51.79 20.421 50.674 20.151 49.69 19.611C48.718 19.059 47.956 18.297 47.404 17.325C46.864 16.353 46.594 15.243 46.594 13.995C46.594 12.747 46.864 11.637 47.404 10.665C47.956 9.68099 48.718 8.91899 49.69 8.37899C50.662 7.82699 51.772 7.55099 53.02 7.55099C54.532 7.55099 55.804 7.91699 56.836 8.64899C57.88 9.38099 58.57 10.395 58.906 11.691H55.504ZM67.2709 20.331L64.6429 15.561H63.9049V20.331H60.8269V7.69499H65.9929C66.9889 7.69499 67.8349 7.86899 68.5309 8.21699C69.2389 8.56499 69.7669 9.04499 70.1149 9.65699C70.4629 10.257 70.6369 10.929 70.6369 11.673C70.6369 12.513 70.3969 13.263 69.9169 13.923C69.4489 14.583 68.7529 15.051 67.8289 15.327L70.7449 20.331H67.2709ZM63.9049 13.383H65.8129C66.3769 13.383 66.7969 13.245 67.0729 12.969C67.3609 12.693 67.5049 12.303 67.5049 11.799C67.5049 11.319 67.3609 10.941 67.0729 10.665C66.7969 10.389 66.3769 10.251 65.8129 10.251H63.9049V13.383ZM80.4351 18.099H75.7191L74.9631 20.331H71.7411L76.3131 7.69499H79.8771L84.4491 20.331H81.1911L80.4351 18.099ZM79.6431 15.723L78.0771 11.097L76.5291 15.723H79.6431ZM97.1446 20.331H94.0666L88.9186 12.537V20.331H85.8406V7.69499H88.9186L94.0666 15.525V7.69499H97.1446V20.331ZM104.11 7.69499C105.442 7.69499 106.606 7.95899 107.602 8.48699C108.598 9.01499 109.366 9.75899 109.906 10.719C110.458 11.667 110.734 12.765 110.734 14.013C110.734 15.249 110.458 16.347 109.906 17.307C109.366 18.267 108.592 19.011 107.584 19.539C106.588 20.067 105.43 20.331 104.11 20.331H99.3758V7.69499H104.11ZM103.912 17.667C105.076 17.667 105.982 17.349 106.63 16.713C107.278 16.077 107.602 15.177 107.602 14.013C107.602 12.849 107.278 11.943 106.63 11.295C105.982 10.647 105.076 10.323 103.912 10.323H102.454V17.667H103.912Z" fill="#0C0C3D"/>
<path d="M51.688 38.457C50.764 38.457 49.936 38.307 49.204 38.007C48.472 37.707 47.884 37.263 47.44 36.675C47.008 36.087 46.78 35.379 46.756 34.551H50.032C50.08 35.019 50.242 35.379 50.518 35.631C50.794 35.871 51.154 35.991 51.598 35.991C52.054 35.991 52.414 35.889 52.678 35.685C52.942 35.469 53.074 35.175 53.074 34.803C53.074 34.491 52.966 34.233 52.75 34.029C52.546 33.825 52.288 33.657 51.976 33.525C51.676 33.393 51.244 33.243 50.68 33.075C49.864 32.823 49.198 32.571 48.682 32.319C48.166 32.067 47.722 31.695 47.35 31.203C46.978 30.711 46.792 30.069 46.792 29.277C46.792 28.101 47.218 27.183 48.07 26.523C48.922 25.851 50.032 25.515 51.4 25.515C52.792 25.515 53.914 25.851 54.766 26.523C55.618 27.183 56.074 28.107 56.134 29.295H52.804C52.78 28.887 52.63 28.569 52.354 28.341C52.078 28.101 51.724 27.981 51.292 27.981C50.92 27.981 50.62 28.083 50.392 28.287C50.164 28.479 50.05 28.761 50.05 29.133C50.05 29.541 50.242 29.859 50.626 30.087C51.01 30.315 51.61 30.561 52.426 30.825C53.242 31.101 53.902 31.365 54.406 31.617C54.922 31.869 55.366 32.235 55.738 32.715C56.11 33.195 56.296 33.813 56.296 34.569C56.296 35.289 56.11 35.943 55.738 36.531C55.378 37.119 54.85 37.587 54.154 37.935C53.458 38.283 52.636 38.457 51.688 38.457ZM57.6682 31.995C57.6682 30.747 57.9382 29.637 58.4782 28.665C59.0182 27.681 59.7682 26.919 60.7282 26.379C61.7002 25.827 62.7982 25.551 64.0222 25.551C65.5222 25.551 66.8062 25.947 67.8742 26.739C68.9422 27.531 69.6562 28.611 70.0162 29.979H66.6322C66.3802 29.451 66.0202 29.049 65.5522 28.773C65.0962 28.497 64.5742 28.359 63.9862 28.359C63.0382 28.359 62.2702 28.689 61.6822 29.349C61.0942 30.009 60.8002 30.891 60.8002 31.995C60.8002 33.099 61.0942 33.981 61.6822 34.641C62.2702 35.301 63.0382 35.631 63.9862 35.631C64.5742 35.631 65.0962 35.493 65.5522 35.217C66.0202 34.941 66.3802 34.539 66.6322 34.011H70.0162C69.6562 35.379 68.9422 36.459 67.8742 37.251C66.8062 38.031 65.5222 38.421 64.0222 38.421C62.7982 38.421 61.7002 38.151 60.7282 37.611C59.7682 37.059 59.0182 36.297 58.4782 35.325C57.9382 34.353 57.6682 33.243 57.6682 31.995ZM82.8452 25.695V38.331H79.7672V33.129H74.9792V38.331H71.9012V25.695H74.9792V30.645H79.7672V25.695H82.8452ZM91.0432 38.457C89.8552 38.457 88.7632 38.181 87.7672 37.629C86.7832 37.077 85.9972 36.309 85.4092 35.325C84.8332 34.329 84.5452 33.213 84.5452 31.977C84.5452 30.741 84.8332 29.631 85.4092 28.647C85.9972 27.663 86.7832 26.895 87.7672 26.343C88.7632 25.791 89.8552 25.515 91.0432 25.515C92.2312 25.515 93.3172 25.791 94.3012 26.343C95.2972 26.895 96.0772 27.663 96.6412 28.647C97.2172 29.631 97.5052 30.741 97.5052 31.977C97.5052 33.213 97.2172 34.329 96.6412 35.325C96.0652 36.309 95.2852 37.077 94.3012 37.629C93.3172 38.181 92.2312 38.457 91.0432 38.457ZM91.0432 35.649C92.0512 35.649 92.8552 35.313 93.4552 34.641C94.0672 33.969 94.3732 33.081 94.3732 31.977C94.3732 30.861 94.0672 29.973 93.4552 29.313C92.8552 28.641 92.0512 28.305 91.0432 28.305C90.0232 28.305 89.2072 28.635 88.5952 29.295C87.9952 29.955 87.6952 30.849 87.6952 31.977C87.6952 33.093 87.9952 33.987 88.5952 34.659C89.2072 35.319 90.0232 35.649 91.0432 35.649ZM105.194 38.457C104.006 38.457 102.914 38.181 101.918 37.629C100.934 37.077 100.148 36.309 99.5596 35.325C98.9836 34.329 98.6956 33.213 98.6956 31.977C98.6956 30.741 98.9836 29.631 99.5596 28.647C100.148 27.663 100.934 26.895 101.918 26.343C102.914 25.791 104.006 25.515 105.194 25.515C106.382 25.515 107.468 25.791 108.452 26.343C109.448 26.895 110.228 27.663 110.792 28.647C111.368 29.631 111.656 30.741 111.656 31.977C111.656 33.213 111.368 34.329 110.792 35.325C110.216 36.309 109.436 37.077 108.452 37.629C107.468 38.181 106.382 38.457 105.194 38.457ZM105.194 35.649C106.202 35.649 107.006 35.313 107.606 34.641C108.218 33.969 108.524 33.081 108.524 31.977C108.524 30.861 108.218 29.973 107.606 29.313C107.006 28.641 106.202 28.305 105.194 28.305C104.174 28.305 103.358 28.635 102.746 29.295C102.146 29.955 101.846 30.849 101.846 31.977C101.846 33.093 102.146 33.987 102.746 34.659C103.358 35.319 104.174 35.649 105.194 35.649ZM116.446 35.955H120.478V38.331H113.368V25.695H116.446V35.955Z" fill="#27ACA1"/>
<path d="M8.62831 17.0831L0.0383482 22.1882L0 12.0931L8.62831 17.0831Z" fill="#27ACA1"/>
<path d="M27.5722 6.02837L18.9056 11.0183V1L27.5722 6.02837Z" fill="#27ACA1"/>
<path d="M17.9086 11.5174L9.24191 16.5458V6.52747L17.9086 11.5174Z" fill="#27ACA1"/>
<path d="M17.9086 34.2411L9.24191 39.2311V29.1358L17.9086 34.2411Z" fill="#27ACA1"/>
<path d="M8.62831 28.2912L0.0383482 33.3579L0 23.2629L8.62831 28.2912Z" fill="#27ACA1"/>
<path d="M36.6608 23.0325L28.0709 28.1376V18.0042L36.6608 23.0325Z" fill="#27ACA1"/>
<path d="M27.5722 39.7299L18.9056 44.7582V34.6631L27.5722 39.7299Z" fill="#27ACA1"/>
<path d="M36.7375 34.3179L28.1091 39.3461V29.2511L36.7375 34.3179Z" fill="#27ACA1"/>
<path d="M0 22.7256L8.62831 27.7541V17.6973L0 22.7256Z" fill="#27ACA1"/>
<path d="M18.7906 23.0325L27.4188 28.0993V18.0042L18.7906 23.0325Z" fill="#27ACA1"/>
<path d="M28.2625 28.6752L36.9291 33.742V23.6469L28.2625 28.6752Z" fill="#27ACA1"/>
<path d="M9.6637 6.06674L18.2537 11.0951L18.292 1.03839L9.6637 6.06674Z" fill="#27ACA1"/>
<path d="M9.6637 39.7299L18.2537 44.7582L18.292 34.6631L9.6637 39.7299Z" fill="#27ACA1"/>
<path d="M0 33.8956L8.62831 38.9239V28.8671L0 33.8956Z" fill="#27ACA1"/>
<path d="M18.9823 34.2411L27.6107 39.2311V29.1358L18.9823 34.2411Z" fill="#27ACA1"/>
<path d="M0 11.5174L8.62831 16.5458V6.52747L0 11.5174Z" fill="#27ACA1"/>
</svg>
